<?xml version="1.0" standalone="no"?>
<!DOCTYPE svg PUBLIC "-//W3C//DTD SVG 20010904//EN"
 "http://www.w3.org/TR/2001/REC-SVG-20010904/DTD/svg10.dtd">
<svg version="1.0" xmlns="http://www.w3.org/2000/svg"
 width="512.000000pt" height="512.000000pt" viewBox="0 0 512.000000 512.000000"
 preserveAspectRatio="xMidYMid meet">
<metadata>
Created by potrace 1.16, written by Peter Selinger 2001-2019
</metadata>
<g transform="translate(0.000000,512.000000) scale(0.100000,-0.100000)"
fill="#000000" stroke="none">
<path d="M961 5109 c-30 -5 -92 -22 -138 -39 -347 -120 -591 -428 -633 -795
-8 -72 -10 -575 -8 -1780 4 -1830 1 -1719 59 -1874 118 -315 408 -559 729
-610 41 -7 338 -11 808 -11 820 0 782 -3 822 63 28 46 27 124 -3 168 -48 72
-9 69 -813 69 -681 0 -725 1 -797 19 -236 61 -419 239 -477 466 -20 77 -20
112 -20 1775 0 1657 0 1699 20 1774 55 217 219 385 450 462 51 17 113 19 822
24 755 5 767 5 794 26 49 36 68 70 68 121 -1 59 -25 108 -67 133 -31 19 -55
20 -797 19 -421 -1 -789 -5 -819 -10z"/>
<path d="M3770 3618 c-38 -27 -70 -81 -70 -121 0 -65 30 -101 373 -444 l341
-343 -1506 -2 c-1504 -3 -1507 -3 -1534 -24 -49 -36 -65 -66 -66 -122 0 -63
28 -113 76 -136 31 -14 177 -16 1537 -16 l1504 0 -357 -357 c-314 -316 -357
-363 -364 -396 -20 -111 81 -205 191 -176 34 9 108 78 532 502 426 426 493
498 504 534 26 91 34 80 -479 597 -257 257 -485 481 -506 497 -51 38 -126 41
-176 7z"/>
</g>
</svg>
