<svg width="34" height="31" viewBox="0 0 34 31" fill="none" xmlns="http://www.w3.org/2000/svg">
<path d="M21.9571 1.15124C20.7738 1.34323 19.5314 1.82921 18.5322 2.48317C18.1641 2.72316 15.6858 4.91904 10.3151 9.78479C6.08828 13.6126 2.59109 16.8164 2.5385 16.9064C2.48591 16.9964 2.44647 17.2124 2.44647 17.3864C2.44647 17.7644 2.60424 18.0403 2.91978 18.2143C3.20902 18.3763 3.7875 18.3763 4.05702 18.2203C4.16877 18.1543 7.65281 15.0225 11.8139 11.2547C15.9685 7.48691 19.5446 4.28308 19.7681 4.13308C20.8264 3.40712 22.0952 3.02914 23.4822 3.02914C25.2702 3.02914 26.7953 3.63511 28.0312 4.82905C29.1881 5.94499 29.7272 7.18692 29.7272 8.73484C29.7272 9.77879 29.5365 10.4987 29.0041 11.4227C28.8595 11.6807 28.5834 12.0707 28.3861 12.2807C28.1955 12.4906 24.5537 15.8865 20.2874 19.8223C14.5617 25.114 12.4187 27.0579 12.09 27.2559C11.8402 27.4059 11.4261 27.5978 11.1697 27.6878C10.7556 27.8198 10.5978 27.8438 9.84184 27.8438C9.11217 27.8438 8.91496 27.8198 8.50739 27.6998C7.29126 27.3339 6.2592 26.3979 5.8582 25.288C5.72673 24.916 5.70044 24.724 5.70044 24.094C5.70044 23.1881 5.85163 22.6961 6.32493 22.0301C6.77852 21.3942 17.8683 11.3627 18.3942 11.1047C19.4131 10.6187 20.6752 11.0327 21.0171 11.9687C21.1617 12.3766 21.1222 12.9346 20.9185 13.3366C20.8001 13.5646 19.6169 14.6805 15.3637 18.5743C12.3859 21.2982 9.92073 23.5841 9.88129 23.656C9.84184 23.728 9.80898 23.932 9.80898 24.106C9.80898 24.688 10.21 25.054 10.8476 25.054C11.0382 25.054 11.2749 25.018 11.3735 24.97C11.4721 24.922 14.0227 22.6181 17.0466 19.8523L22.5422 14.8245L22.8183 14.3085C23.4362 13.1446 23.4362 11.8367 22.8117 10.7567C22.5356 10.2768 21.7928 9.59879 21.2669 9.34681C20.0639 8.76484 18.5388 8.77684 17.2832 9.37681C16.8625 9.5748 16.4615 9.91678 13.6217 12.4606C8.63886 16.9364 4.79984 20.4822 4.52375 20.8722C4.18849 21.3462 3.85981 22.0001 3.68232 22.5701C3.55085 22.9841 3.53113 23.1761 3.53113 24.094C3.53113 25.012 3.55085 25.204 3.68232 25.6179C4.31339 27.6098 5.93709 29.1038 8.1064 29.6797C8.46795 29.7757 8.83607 29.8117 9.54603 29.8357C10.6636 29.8717 11.4064 29.7577 12.2741 29.4337C13.4705 28.9778 13.2733 29.1398 21.8979 21.1782C27.2686 16.2224 30.0098 13.6486 30.2925 13.3006C31.0353 12.3886 31.5809 11.2187 31.7979 10.0728C31.9228 9.40681 31.9228 8.05688 31.7979 7.39091C31.5809 6.27497 31.0616 5.14103 30.3451 4.22908C29.9047 3.67711 28.9449 2.80715 28.3401 2.41718C27.3935 1.80521 26.1314 1.33123 24.9547 1.14524C24.2447 1.03125 22.6539 1.03725 21.9571 1.15124Z" fill="#939393"/>
</svg>
