<svg width="35" height="32" viewBox="0 0 35 32" fill="none" xmlns="http://www.w3.org/2000/svg">
<g clip-path="url(#clip0_7_207)">
<path d="M16.0379 0.138477C11.627 0.582798 7.63018 2.56372 4.81665 5.71098C2.83798 7.92024 1.60871 10.4257 1.0631 13.3631C0.938196 14.0358 0.925049 14.3629 0.925049 15.8933C0.925049 17.4237 0.938196 17.7508 1.0631 18.4235C1.68102 21.7558 3.16667 24.5143 5.61864 26.9025C8.13635 29.3586 11.3114 30.9138 15.019 31.5247C15.7355 31.642 16.0839 31.6543 17.7142 31.6543C19.7717 31.6543 20.3897 31.5926 22.0068 31.2038C27.8047 29.7968 32.5246 25.3659 34.0234 19.923C34.4376 18.4049 34.5033 17.8249 34.5033 15.8933C34.5033 13.9617 34.4376 13.3817 34.0234 11.8636C32.5246 6.42683 27.8047 1.98981 22.0068 0.582798C20.5146 0.224873 19.8112 0.14465 17.9771 0.126137C17.0568 0.113794 16.1825 0.119965 16.0379 0.138477ZM20.1793 1.6936C23.4201 2.21197 26.2139 3.56961 28.5278 5.74184C30.5065 7.59934 31.8475 9.77774 32.5312 12.2524C32.919 13.6655 32.9979 14.2641 32.9979 15.8933C32.9979 17.5225 32.919 18.1211 32.5312 19.5343C31.8475 22.0089 30.5065 24.1873 28.5278 26.0448C26.1745 28.254 23.3215 29.6178 19.9821 30.13C18.9632 30.2843 16.4652 30.2843 15.4463 30.13C12.1068 29.6178 9.25387 28.254 6.9005 26.0448C4.54713 23.8355 3.09436 21.1573 2.54874 18.0223C2.3844 17.0658 2.3844 14.7208 2.54874 13.7643C3.09436 10.6294 4.54713 7.95109 6.9005 5.74184C9.47738 3.32277 12.4815 1.98981 16.3337 1.55166C16.4586 1.53932 17.2014 1.53315 17.9771 1.54549C19.0289 1.55783 19.5942 1.59486 20.1793 1.6936Z" fill="#9C9C9C"/>
<path d="M11.0354 11.2094C10.5424 11.3822 10.1348 11.7525 9.87846 12.24C9.68782 12.6041 9.66153 12.709 9.66153 13.1471C9.6681 13.7766 9.87846 14.2456 10.3583 14.6714C10.8185 15.0787 11.2787 15.233 11.9623 15.2021C12.8366 15.1713 13.4677 14.7825 13.849 14.0605C14.033 13.7025 14.0593 13.5976 14.0593 13.1533C14.0593 12.7398 14.0264 12.5917 13.8753 12.2832C13.6452 11.8142 13.1653 11.376 12.6788 11.2032C12.2055 11.0366 11.4956 11.0428 11.0354 11.2094ZM12.1792 12.5856C12.646 12.8139 12.6525 13.4372 12.1924 13.6902C11.7388 13.9432 11.1932 13.647 11.1932 13.141C11.1932 12.6596 11.7191 12.3634 12.1792 12.5856Z" fill="#9C9C9C"/>
<path d="M22.73 11.2094C22.2698 11.376 21.7768 11.8265 21.5533 12.2832C21.4021 12.5917 21.3692 12.7398 21.3692 13.1533C21.3692 13.5976 21.3955 13.7025 21.5796 14.0605C21.9609 14.7825 22.5919 15.1713 23.4662 15.2021C24.1499 15.233 24.61 15.0787 25.0702 14.6714C25.5501 14.2456 25.7604 13.7766 25.767 13.1471C25.767 12.709 25.7407 12.6041 25.5501 12.24C25.1491 11.4748 24.4589 11.0798 23.5451 11.086C23.2362 11.086 22.9535 11.1292 22.73 11.2094ZM23.8804 12.5856C24.4917 12.8818 24.2485 13.7951 23.5648 13.7951C23.486 13.7951 23.3348 13.7457 23.2362 13.6902C22.4736 13.2706 23.0981 12.2091 23.8804 12.5856Z" fill="#9C9C9C"/>
<path d="M10.8448 19.3738C10.457 19.5342 10.286 19.8798 10.4175 20.2501C10.5161 20.5216 11.581 21.4658 12.291 21.9101C13.402 22.6074 14.881 23.1567 16.2023 23.3665C16.4719 23.4097 17.1555 23.4467 17.7143 23.4467C18.273 23.4467 18.9567 23.4097 19.2262 23.3665C21.2641 23.0394 23.1967 22.1014 24.6035 20.7561C25.2148 20.1637 25.2017 19.6206 24.5575 19.3676C24.2091 19.2257 23.9921 19.3182 23.3873 19.849C21.7374 21.3115 19.8902 22.015 17.7143 22.015C15.5515 22.015 13.6518 21.293 12.0609 19.8675C11.4233 19.2936 11.2326 19.2133 10.8448 19.3738Z" fill="#9C9C9C"/>
</g>
<defs>
<clipPath id="clip0_7_207">
<rect width="33.6571" height="31.596" fill="white" transform="translate(0.885681 0.0952759)"/>
</clipPath>
</defs>
</svg>
