<svg width="35" height="31" viewBox="0 0 35 31" fill="none" xmlns="http://www.w3.org/2000/svg">
<path d="M17.8699 5.38C3.66117 0.908923 2.46822 0.547366 2.14165 0.565982C1.62064 0.598268 1.23809 0.828024 0.916644 1.2977C0.506293 1.89729 0.506073 2.52077 0.911161 3.12817C1.00095 3.25565 3.32328 5.9529 6.07661 9.11387L11.0755 14.8609L9.04291 21.511C7.92553 25.1778 6.98098 28.3098 6.94003 28.4872C6.78242 29.2231 7.0595 29.853 7.75547 30.3293C8.2706 30.6818 8.73351 30.7932 9.23597 30.6822C9.5536 30.6061 10.4932 29.9505 21.7868 21.8908C32.9649 13.906 34.005 13.1504 34.2102 12.8506C34.7504 12.0612 34.5032 11.0703 33.623 10.4752C33.2634 10.2364 32.2265 9.89362 17.8699 5.38ZM21.506 12.4834C16.5399 13.1787 12.4399 13.7256 12.4015 13.6994C12.3467 13.6619 4.07577 4.17145 2.86081 2.76033L2.55449 2.39662L16.516 6.79388C24.1963 9.21082 30.4919 11.1937 30.5083 11.2049C30.5282 11.2112 26.472 11.7881 21.506 12.4834ZM19.854 20.9642L8.78617 28.8703L8.91046 28.4418C9.2881 27.1375 12.8165 15.6562 12.8507 15.6062C12.8917 15.5463 30.902 12.993 30.9177 13.0405C30.9164 13.0543 25.9415 16.6196 19.854 20.9642Z" fill="#888787"/>
</svg>
